<svg xmlns="http://www.w3.org/2000/svg" width="133.37mm" height="16.93mm" viewBox="0 0 378.07 48"><defs><style>.a{fill:#f01414;}.b{fill:#fff;}.c{fill:#878c96;}</style></defs><title>s_muenchen</title><path class="a" d="M61.68,0H6.89A6.83,6.83,0,0,0,0,6.83V41.09A6.9,6.9,0,0,0,6.89,48H61.68a6.9,6.9,0,0,0,6.89-6.91V6.83A6.83,6.83,0,0,0,61.68,0Z"/><path class="b" d="M63.57,41.09a1.89,1.89,0,0,1-1.89,2H6.89a1.89,1.89,0,0,1-1.89-2V6.83a1.89,1.89,0,0,1,1.89-2H61.68a1.89,1.89,0,0,1,1.89,2V41.09h0Z"/><path class="a" d="M21,39.71H9.43V8.29H21c8.13,0,12.62,5.09,12.62,15.56C33.59,32.95,30.55,39.64,21,39.71Zm5-15.2c0-6.33-.66-11.27-7.48-11.27H17V34.62h2.68C23.66,34.62,26,31.42,26,24.51Z"/><path class="a" d="M53.52,23.27A7.73,7.73,0,0,0,59,16c0-.65-0.14-7.66-9-7.66H36.89V39.71H48c2.94,0,12.11,0,12.11-8.83C60.11,28.67,59.21,24.52,53.52,23.27ZM44.36,13.15h2.38c3.38,0,4.72,1.18,4.72,3.78a3.77,3.77,0,0,1-4.1,3.8h-3V13.15Zm3.09,21.47H44.36V26.54h3.3c3.92,0,4.88,2.29,4.88,4C52.54,34.62,48.65,34.62,47.46,34.62Z"/><path class="c" d="M154.3,22.83A10.43,10.43,0,0,0,149,21.42c-2.31,0-3.51.81-3.51,2.37,0,1.2.33,1.53,3.33,3,3.42,1.71,4.59,3.27,4.59,6.06,0,4.59-3.21,7.32-8.64,7.32a14,14,0,0,1-7.14-1.65l0.78-4a11.4,11.4,0,0,0,6.06,1.71c2.37,0,3.84-1,3.84-2.61a2.24,2.24,0,0,0-1.14-1.92,18.23,18.23,0,0,0-2.64-1.53c-2.91-1.53-3.93-3-3.93-5.67,0-4.47,3-7,8.31-7a14.4,14.4,0,0,1,6.15,1.26Z"/><path class="c" d="M156.07,28h7.47l-0.69,3.69h-7.5Z"/><path class="c" d="M168.61,18h7.92c4.35,0,6.69,1.71,6.69,4.86a5.34,5.34,0,0,1-1.38,3.81,5.5,5.5,0,0,1-3.24,1.62c2.82,0.51,4,1.89,4,4.56,0,4.59-3.24,7-9.48,7h-8.79Zm4.83,18c2.79,0,4.14-1.2,4.14-3.69,0-1.59-1-2.37-2.91-2.37h-3.18L170.32,36h3.12ZM175,26.76a2.68,2.68,0,0,0,3-3c0-1.29-.78-1.92-2.31-1.92h-2.64l-1,4.92H175Z"/><path class="c" d="M195.49,39.81L195,37.2c-1.86,2.16-3.45,3.06-5.46,3.06-2.82,0-4.44-2-4.44-5.34a16,16,0,0,1,2.16-8.1,7.5,7.5,0,0,1,6.33-3.36,5.69,5.69,0,0,1,4.32,1.8l1-1.41h3.09l-2.22,11.4a11.54,11.54,0,0,0-.24,2.07A2.28,2.28,0,0,0,200,39l-0.18.81h-4.35Zm0.93-12.36a3.33,3.33,0,0,0-2-.57A3.49,3.49,0,0,0,191,29.43a17.21,17.21,0,0,0-1,5.13c0,1.53.63,2.34,1.83,2.34,1,0,1.8-.39,3.06-1.53Z"/><path class="c" d="M212.29,39.81l1.92-10a9.35,9.35,0,0,0,.12-1A1.22,1.22,0,0,0,213,27.42c-1,0-1.92.39-3.39,1.53l-2.13,10.86h-4.8l4.2-21.69a6.2,6.2,0,0,0,3.87-1h1.17L210,26.7c2.31-2.28,4.14-3.24,6.15-3.24a3,3,0,0,1,3.3,3.27,12.22,12.22,0,0,1-.18,1.8l-2.16,11.28h-4.83Z"/><path class="c" d="M230.44,39.81l1.92-10a5.82,5.82,0,0,0,.12-1,1.22,1.22,0,0,0-1.35-1.38A5.44,5.44,0,0,0,227.74,29l-2.13,10.86h-4.8l3-15.42c1.92-.06,3.15-0.39,3.84-1l1.17,0.27-0.63,3c2.31-2.25,4.17-3.21,6.18-3.21a3,3,0,0,1,3.3,3.33,8.91,8.91,0,0,1-.24,1.89l-2.13,11.13h-4.83Z"/><path class="c" d="M253.12,18h5.67l2.55,12.54L269.17,18h6.18l-4.23,21.81h-5.25l2.82-14.46L261,37.56h-2.85l-2.46-11.94L252.4,39.81h-4.35Z"/><path class="c" d="M289.57,39.81h-3.24l-0.66-2.58c-2.22,2.13-4,3-5.94,3-2.31,0-3.63-1.41-3.63-3.81a9.49,9.49,0,0,1,.24-2l2-10.26,4.92-.39-1.95,10a5.76,5.76,0,0,0-.15,1.23,1.32,1.32,0,0,0,1.44,1.47c0.9,0,1.65-.33,3.06-1.32l2.16-11,4.89-.39Zm-3.84-20.49a2.4,2.4,0,0,1-2.46,2.49A2.19,2.19,0,0,1,281,19.57a2.42,2.42,0,0,1,2.52-2.49A2.19,2.19,0,0,1,285.73,19.32Zm6.12,0a2.4,2.4,0,0,1-2.46,2.49,2.17,2.17,0,0,1-2.28-2.28,2.4,2.4,0,0,1,2.46-2.46A2.18,2.18,0,0,1,291.85,19.32Z"/><path class="c" d="M303,39.81l1.92-10a5.73,5.73,0,0,0,.12-1,1.21,1.21,0,0,0-1.35-1.38A5.43,5.43,0,0,0,300.34,29l-2.13,10.86h-4.8l3-15.42c1.92-.06,3.15-0.39,3.84-1l1.17,0.27-0.63,3c2.31-2.25,4.17-3.21,6.18-3.21a3,3,0,0,1,3.3,3.33,8.92,8.92,0,0,1-.24,1.89l-2.13,11.13H303Z"/><path class="c" d="M323.71,39.18a10.64,10.64,0,0,1-4.8,1.11c-4.23,0-6.63-2.34-6.63-6.39a11.72,11.72,0,0,1,2.79-8.07,8.94,8.94,0,0,1,6.72-2.49,10,10,0,0,1,4.47.9l-0.69,3.57A7.88,7.88,0,0,0,322,27a3.87,3.87,0,0,0-3.84,2.1,12.24,12.24,0,0,0-1,4.59c0,1.92,1,2.94,3.06,2.94a10.46,10.46,0,0,0,4.17-1Z"/><path class="c" d="M336.19,39.81l1.92-10a9.24,9.24,0,0,0,.12-1,1.22,1.22,0,0,0-1.35-1.35c-1.05,0-1.92.39-3.39,1.53l-2.13,10.86h-4.8l4.2-21.69a6.2,6.2,0,0,0,3.87-1h1.17l-1.89,9.57c2.31-2.28,4.14-3.24,6.15-3.24a3,3,0,0,1,3.3,3.27,12.21,12.21,0,0,1-.18,1.8L341,39.81h-4.83Z"/><path class="c" d="M357.7,39.15a13.25,13.25,0,0,1-5.49,1.14c-4.44,0-6.84-2.16-6.84-6.15a12.5,12.5,0,0,1,2.64-8,8.54,8.54,0,0,1,6.69-2.82c3.57,0,5.73,1.71,5.73,4.56,0,2.43-1.5,4.11-4.35,4.89a22.5,22.5,0,0,1-5.79.69,4.79,4.79,0,0,0,0,.6c0,1.83.93,2.55,3.24,2.55a13.09,13.09,0,0,0,4.89-1Zm-1.8-10.71a1.63,1.63,0,0,0-1.83-1.77c-1.86,0-2.82,1.17-3.36,4.11C354.82,30.51,355.9,30,355.9,28.45Z"/><path class="c" d="M370.87,39.81l1.92-10a5.82,5.82,0,0,0,.12-1,1.21,1.21,0,0,0-1.35-1.38A5.43,5.43,0,0,0,368.17,29L366,39.81h-4.8l3-15.42c1.92-.06,3.15-0.39,3.84-1l1.17,0.27-0.63,3c2.31-2.25,4.17-3.21,6.18-3.21a3,3,0,0,1,3.3,3.33,8.92,8.92,0,0,1-.24,1.89L375.7,39.81h-4.83Z"/></svg>